<svg class="color-immutable" width="30" height="30" viewBox="0 0 30 30" fill="none" xmlns="http://www.w3.org/2000/svg"><path d="M29.9998 0H0V29.9998H29.9998V0Z" fill="#2D327D"/><path d="M25.4999 2.99998C26.3249 2.99998 26.9999 3.67498 26.9999 4.49998V25.4999C26.9999 26.3249 26.3249 26.9999 25.4999 26.9999H4.49998C3.67498 26.9999 2.99998 26.3249 2.99998 25.4999V4.49998C2.99998 3.67498 3.67498 2.99998 4.49998 2.99998H25.4999ZM25.4999 2.62499H4.49998C3.46611 2.62499 2.62499 3.46611 2.62499 4.49998V25.4999C2.62499 26.5337 3.46611 27.3749 4.49998 27.3749H25.4999C26.5337 27.3749 27.3749 26.5337 27.3749 25.4999V4.49998C27.3749 3.46611 26.5337 2.62499 25.4999 2.62499Z" fill="white"/><path d="M13.33 7.06106C13.7689 6.30094 14.7424 6.04009 15.5022 6.47884C16.2619 6.91744 16.5234 7.89101 16.0839 8.6509C15.6455 9.41148 14.6723 9.67195 13.9119 9.23268C13.1518 8.79453 12.8917 7.82103 13.33 7.06106Z" fill="white"/><path d="M7.0098 24.1906C7.43355 24.3046 7.8696 24.0519 7.9833 23.6285L9.93081 16.3608L11.997 19.9404V23.4217C11.997 23.8613 12.3527 24.2173 12.7918 24.2173C13.2311 24.2173 13.5868 23.8612 13.5868 23.4217C13.5868 23.4217 13.5868 19.9222 13.5868 19.756C13.5868 19.5901 13.5491 19.4497 13.4664 19.3062C13.3832 19.1632 11.6998 16.2455 11.6998 16.2455L13.9983 12.2642L14.8477 13.7363L14.1499 14.1391L15.6327 16.7067L16.9565 24.2173L17.3996 24.1394L16.06 16.5427L16.0578 16.5436L16.055 16.5383L16.3639 16.3607V16.3612L16.3647 16.3607C16.5405 16.6652 16.9287 16.7689 17.2326 16.5934C17.5368 16.4181 17.6411 16.0292 17.4653 15.7244L14.2688 10.1881L14.268 10.1886C14.1332 9.9577 13.9398 9.7579 13.6921 9.61398C12.9318 9.1756 11.9589 9.43638 11.5202 10.1968C11.5202 10.1968 8.64089 15.184 8.62357 15.2133C8.58224 15.2848 8.55539 15.3498 8.53394 15.4305C8.51242 15.5102 6.4473 23.2164 6.4473 23.2164C6.33361 23.6404 6.58553 24.0766 7.0098 24.1906ZM15.1095 14.1893L16.1011 15.906L15.7929 16.0848L14.8014 14.3667L15.1095 14.1893Z" fill="white"/></svg>