<svg class="color-immutable" width="24" height="24" viewBox="0 0 24 24" fill="none" xmlns="http://www.w3.org/2000/svg"><path d="M0 22.5V1.5C0 0.675 0.675 0 1.5 0H22.5C23.325 0 24 0.675 24 1.5V22.5C24 23.325 23.325 24 22.5 24H1.5C0.675 24 0 23.325 0 22.5Z" fill="#2D327D"/><path d="M10.33 4.06101C10.769 3.30101 11.742 3.04001 12.502 3.47901C13.262 3.91801 13.523 4.89101 13.084 5.65101C12.646 6.41201 11.672 6.67201 10.912 6.23301C10.152 5.79501 9.89201 4.82101 10.33 4.06101Z" fill="white"/><path d="M4.01003 21.191C4.43403 21.305 4.87002 21.052 4.98302 20.629L6.93103 13.361L8.99703 16.941V20.422C8.99703 20.862 9.35302 21.218 9.79203 21.218C10.231 21.218 10.587 20.862 10.587 20.422C10.587 20.422 10.587 16.922 10.587 16.756C10.587 16.59 10.549 16.45 10.467 16.306C10.383 16.163 8.70003 13.246 8.70003 13.246L10.998 9.26501L11.847 10.737L11.149 11.14L12.632 13.708L13.956 21.219L14.399 21.141L13.059 13.544L13.057 13.545L13.054 13.54L13.363 13.362H13.364C13.54 13.666 13.928 13.77 14.232 13.595C14.536 13.42 14.641 13.031 14.465 12.726L11.268 7.19001L11.267 7.19101C11.132 6.96001 10.939 6.76001 10.691 6.61601C9.93203 6.17601 8.95903 6.43601 8.52003 7.19701C8.52003 7.19701 5.64103 12.184 5.62303 12.214C5.58203 12.286 5.55503 12.351 5.53303 12.431C5.51102 12.511 3.44603 20.217 3.44603 20.217C3.33403 20.641 3.58603 21.077 4.01003 21.191ZM12.11 11.189L13.102 12.906L12.794 13.085L11.803 11.367L12.11 11.189Z" fill="white"/></svg>