<svg class="color-immutable" width="24" height="24" viewBox="0 0 24 24" fill="none" xmlns="http://www.w3.org/2000/svg"><path d="M0 22.5V1.5C0 0.675 0.675 0 1.5 0H22.5C23.325 0 24 0.675 24 1.5V22.5C24 23.325 23.325 24 22.5 24H1.5C0.675 24 0 23.325 0 22.5Z" fill="#2D327D"/><path d="M18.749 7.5H14.738V6.6C14.738 5.855 14.132 5.25 13.387 5.25H10.612C9.86702 5.25 9.26202 5.855 9.26202 6.6V7.5H5.25002C4.00802 7.5 2.99902 8.507 2.99902 9.75V18.75C2.99902 19.992 4.00802 21 5.25002 21H18.749C19.992 21 21 19.993 21 18.75V9.75C21.001 8.508 19.993 7.5 18.749 7.5ZM13.688 7.5H10.312V6.3H13.688V7.5Z" fill="white"/><path d="M9.77205 8.925C6.85305 8.925 4.48505 11.217 4.48505 14.136C4.48505 17.055 6.85305 19.5 9.77205 19.5C12.691 19.5 15.06 17.055 15.06 14.136C15.06 11.217 12.691 8.925 9.77205 8.925ZM9.77205 18.095C7.68205 18.095 5.98405 16.398 5.98405 14.307C5.98405 12.217 7.68105 10.52 9.77205 10.52C11.862 10.52 13.559 12.217 13.559 14.307C13.559 16.398 11.862 18.095 9.77205 18.095Z" fill="#EB0000"/><path d="M7.72502 14.85H11.85C12.161 14.85 12.413 14.598 12.413 14.287C12.413 13.977 12.161 13.724 11.85 13.724H7.72502C7.41402 13.724 7.16302 13.976 7.16302 14.287C7.16302 14.598 7.41402 14.85 7.72502 14.85Z" fill="black"/><path d="M7.16302 12.307H7.58602C7.66502 12.307 7.73202 12.316 7.78802 12.334C7.84402 12.352 7.89402 12.381 7.93602 12.42C8.04002 12.515 8.09303 12.648 8.09303 12.817C8.09303 12.996 8.04402 13.135 7.94502 13.233C7.90202 13.276 7.85302 13.307 7.79802 13.326C7.74402 13.344 7.67502 13.354 7.59102 13.354H7.16302V12.307ZM7.39202 12.5V13.159H7.56802C7.62202 13.159 7.66502 13.154 7.69702 13.143C7.72902 13.132 7.75702 13.114 7.78102 13.088C7.83602 13.028 7.86402 12.94 7.86402 12.824C7.86402 12.717 7.83802 12.636 7.78702 12.582C7.73502 12.528 7.65902 12.5 7.55902 12.5H7.39202Z" fill="black"/><path d="M8.60404 12.55C8.71704 12.55 8.81004 12.588 8.88204 12.663C8.95304 12.737 8.98904 12.837 8.98904 12.961C8.98904 13.089 8.95104 13.191 8.87504 13.268C8.80404 13.339 8.71104 13.375 8.59704 13.375C8.47504 13.375 8.37904 13.335 8.30704 13.256C8.23804 13.181 8.20404 13.083 8.20404 12.963C8.20404 12.845 8.23704 12.749 8.30404 12.675C8.37904 12.591 8.47904 12.55 8.60404 12.55ZM8.59404 12.712C8.53904 12.712 8.49604 12.734 8.46304 12.779C8.43004 12.824 8.41404 12.885 8.41404 12.963C8.41404 13.044 8.43004 13.105 8.46304 13.148C8.49604 13.191 8.54204 13.213 8.60004 13.213C8.65404 13.213 8.69704 13.193 8.72804 13.154C8.76404 13.11 8.78204 13.046 8.78204 12.963C8.78204 12.885 8.76604 12.824 8.73504 12.781C8.70004 12.734 8.65404 12.712 8.59404 12.712Z" fill="black"/><path d="M9.85304 12.572V13.26C9.85304 13.321 9.84904 13.37 9.84204 13.406C9.83404 13.442 9.82104 13.476 9.80304 13.506C9.74304 13.601 9.63504 13.649 9.48004 13.649C9.26404 13.649 9.14504 13.567 9.12504 13.404H9.33404C9.34804 13.469 9.39904 13.502 9.48504 13.502C9.55104 13.502 9.59704 13.483 9.62304 13.446C9.64304 13.416 9.65404 13.369 9.65404 13.303L9.65504 13.206C9.60204 13.288 9.52404 13.329 9.42304 13.329C9.32504 13.329 9.24704 13.295 9.18904 13.226C9.13004 13.156 9.10004 13.063 9.10004 12.944C9.10004 12.826 9.13004 12.731 9.18904 12.659C9.25104 12.585 9.33104 12.548 9.43104 12.548C9.48304 12.548 9.52604 12.558 9.56104 12.577C9.59604 12.597 9.62804 12.629 9.65704 12.675V12.571H9.85304V12.572ZM9.47604 12.719C9.41804 12.719 9.37404 12.743 9.34404 12.792C9.32004 12.831 9.30804 12.881 9.30804 12.941C9.30804 13.017 9.32604 13.075 9.36104 13.115C9.39204 13.15 9.43104 13.168 9.48004 13.168C9.54204 13.168 9.58804 13.142 9.61904 13.09C9.64304 13.05 9.65504 12.999 9.65504 12.938C9.65504 12.865 9.63704 12.808 9.60004 12.768C9.57004 12.735 9.52904 12.719 9.47604 12.719Z" fill="black"/><path d="M10.726 13.353H10.514C10.505 13.322 10.5 13.296 10.5 13.275C10.435 13.341 10.351 13.374 10.249 13.374C10.169 13.374 10.106 13.355 10.062 13.318C10.011 13.275 9.98505 13.215 9.98505 13.138C9.98505 13.04 10.029 12.973 10.117 12.935C10.153 12.92 10.219 12.906 10.314 12.893C10.396 12.882 10.448 12.871 10.468 12.861C10.488 12.851 10.498 12.83 10.498 12.799C10.498 12.731 10.453 12.697 10.362 12.697C10.314 12.697 10.279 12.706 10.257 12.723C10.235 12.74 10.22 12.77 10.213 12.812H10.017C10.023 12.725 10.056 12.66 10.115 12.616C10.174 12.572 10.258 12.55 10.367 12.55C10.488 12.55 10.577 12.575 10.634 12.624C10.661 12.647 10.678 12.671 10.687 12.698C10.696 12.724 10.7 12.766 10.7 12.822C10.7 12.834 10.699 12.886 10.698 12.979C10.697 13.073 10.697 13.127 10.697 13.141C10.697 13.198 10.699 13.239 10.702 13.266C10.707 13.292 10.714 13.321 10.726 13.353ZM10.498 12.976C10.471 12.993 10.423 13.006 10.352 13.015C10.302 13.023 10.267 13.032 10.245 13.044C10.214 13.061 10.199 13.089 10.199 13.129C10.199 13.161 10.209 13.187 10.23 13.205C10.25 13.223 10.279 13.232 10.316 13.232C10.377 13.232 10.426 13.211 10.464 13.168C10.477 13.153 10.487 13.138 10.492 13.122C10.497 13.106 10.5 13.085 10.5 13.059V12.976H10.498Z" fill="black"/><path d="M11.058 12.574V12.683C11.082 12.65 11.105 12.625 11.126 12.609C11.177 12.569 11.239 12.549 11.312 12.549C11.376 12.549 11.43 12.565 11.474 12.598C11.509 12.624 11.534 12.656 11.548 12.696C11.562 12.735 11.569 12.791 11.569 12.862V13.353H11.362V12.906C11.362 12.856 11.358 12.819 11.349 12.796C11.341 12.775 11.327 12.759 11.308 12.747C11.286 12.734 11.26 12.728 11.231 12.728C11.2 12.728 11.171 12.736 11.145 12.751C11.119 12.766 11.1 12.787 11.088 12.813C11.074 12.843 11.067 12.889 11.067 12.951V13.353H10.86V12.574H11.058Z" fill="black"/><path d="M12.435 13.353H12.223C12.214 13.322 12.209 13.296 12.209 13.275C12.144 13.341 12.06 13.374 11.958 13.374C11.878 13.374 11.815 13.355 11.771 13.318C11.72 13.275 11.694 13.215 11.694 13.138C11.694 13.04 11.738 12.973 11.826 12.935C11.862 12.92 11.928 12.906 12.023 12.893C12.105 12.882 12.157 12.871 12.177 12.861C12.197 12.851 12.207 12.83 12.207 12.799C12.207 12.731 12.162 12.697 12.071 12.697C12.023 12.697 11.988 12.706 11.966 12.723C11.944 12.74 11.929 12.77 11.922 12.812H11.726C11.732 12.725 11.765 12.66 11.824 12.616C11.883 12.572 11.967 12.55 12.076 12.55C12.197 12.55 12.286 12.575 12.343 12.624C12.37 12.647 12.387 12.671 12.396 12.698C12.405 12.724 12.409 12.766 12.409 12.822C12.409 12.834 12.408 12.886 12.407 12.979C12.406 13.073 12.406 13.127 12.406 13.141C12.406 13.198 12.408 13.239 12.411 13.266C12.416 13.292 12.424 13.321 12.435 13.353ZM12.207 12.976C12.18 12.993 12.132 13.006 12.061 13.015C12.011 13.023 11.976 13.032 11.954 13.044C11.923 13.061 11.908 13.089 11.908 13.129C11.908 13.161 11.918 13.187 11.939 13.205C11.959 13.223 11.988 13.232 12.025 13.232C12.086 13.232 12.135 13.211 12.173 13.168C12.186 13.153 12.196 13.138 12.201 13.122C12.206 13.106 12.209 13.085 12.209 13.059V12.976H12.207Z" fill="black"/></svg>