<svg class="color-immutable" width="24" height="24" viewBox="0 0 24 24" fill="none" xmlns="http://www.w3.org/2000/svg"><path d="M0 22.5V1.5C0 0.675 0.675 0 1.5 0H22.5C23.325 0 24 0.675 24 1.5V22.5C24 23.325 23.325 24 22.5 24H1.5C0.675 24 0 23.325 0 22.5Z" fill="#2D327D"/><path d="M12 15C13.6569 15 15 13.6569 15 12C15 10.3431 13.6569 9 12 9C10.3431 9 9 10.3431 9 12C9 13.6569 10.3431 15 12 15Z" fill="white"/><path d="M19.8 6.74999H16.275L15.928 6.25599L15.22 5.24899C15.155 5.15599 15.043 5.09999 14.921 5.09999H12H9.079C8.958 5.09999 8.845 5.15599 8.78 5.24899L8.072 6.25599L7.725 6.74999H4.2C3.537 6.74999 3 7.28699 3 7.94999V16.05C3 16.713 3.537 17.25 4.2 17.25H19.8C20.463 17.25 21 16.713 21 16.05V7.94999C21 7.28699 20.463 6.74999 19.8 6.74999ZM5.475 9.14999C5.061 9.14999 4.725 8.81399 4.725 8.39999C4.725 7.98599 5.061 7.64999 5.475 7.64999C5.889 7.64999 6.225 7.98599 6.225 8.39999C6.225 8.81399 5.889 9.14999 5.475 9.14999ZM12 16.05C9.763 16.05 7.95 14.237 7.95 12C7.95 9.76299 9.763 7.94999 12 7.94999C14.237 7.94999 16.05 9.76299 16.05 12C16.05 14.237 14.237 16.05 12 16.05Z" fill="white"/><path d="M19.875 5.85C19.875 5.767 19.841 5.692 19.787 5.638C19.732 5.584 19.657 5.55 19.575 5.55H17.625C17.459 5.55 17.325 5.684 17.325 5.85V6.15H19.875V5.85Z" fill="white"/><path d="M3.70801 2.631L2.64801 3.692L19.99 21.034L21.05 19.973L3.70801 2.631Z" fill="#EB0000"/></svg>