<svg class="color-immutable" width="30" height="30" viewBox="0 0 30 30" fill="none" xmlns="http://www.w3.org/2000/svg"><path d="M30 0H0V30H30V0Z" fill="#2D327D"/><path d="M25.5 3C26.325 3 27 3.675 27 4.5V25.5C27 26.325 26.325 27 25.5 27H4.5C3.675 27 3 26.325 3 25.5V4.5C3 3.675 3.675 3 4.5 3H25.5ZM25.5 2.625H4.5C3.46613 2.625 2.625 3.46613 2.625 4.5V25.5C2.625 26.5339 3.46613 27.375 4.5 27.375H25.5C26.5339 27.375 27.375 26.5339 27.375 25.5V4.5C27.375 3.46613 26.5339 2.625 25.5 2.625Z" fill="white"/><path d="M24 23.7H6V24H24V23.7Z" fill="white"/><path d="M16.125 20.475H18.225C18.2431 20.475 18.2609 20.4736 18.2785 20.4715L20.6301 20.475C20.8438 20.475 21.0403 20.4037 21.1978 20.2837C21.3553 20.1637 21.4738 19.995 21.5308 19.8L24 10.275H22.4997L20.9619 15.1486L17.325 15.1111L17.2125 15.1125C16.8604 15.1125 16.575 15.3979 16.575 15.75C16.575 16.102 16.8603 16.3875 17.2125 16.3875H17.325L20.5572 16.425L19.9146 18.45H18.2249H17.6249H16.125C15.8775 18.45 15.675 18.6525 15.675 18.9V20.025C15.675 20.2725 15.8775 20.475 16.125 20.475ZM15.9747 18.9C15.9747 18.8187 16.0434 18.75 16.1247 18.75H17.6247H18.2247H19.9144H20.1339L20.2003 18.5407L20.8429 16.5157L20.9654 16.1297L20.5604 16.125L17.3245 16.0875H17.212C17.0259 16.0875 16.8745 15.9361 16.8745 15.75C16.8745 15.5639 17.0259 15.4125 17.2156 15.4125L17.3247 15.4112L20.9585 15.4487L21.1808 15.451L21.2477 15.239L22.7196 10.575H23.6124L21.2415 19.7198C21.2031 19.848 21.1231 19.9634 21.0159 20.0452C20.9043 20.1301 20.7708 20.1751 20.6304 20.1751L18.2787 20.1715H18.2604L18.2424 20.1737C18.2329 20.1748 18.2275 20.1751 18.2246 20.1751H16.1246C16.0433 20.1751 15.9746 20.1064 15.9746 20.0251L15.9747 18.9Z" fill="white"/><path d="M22.5076 9.825H24V6.4956C24 6.2223 23.7777 6 23.5044 6H22.0206C21.7473 6 21.5249 6.2223 21.5249 6.4956V8.49945C21.5245 8.6613 21.5362 8.77245 21.7036 8.9481L22.5076 9.825ZM21.8247 6.4956C21.8247 6.38775 21.9124 6.3 22.0203 6.3H23.504C23.6119 6.3 23.6995 6.38775 23.6995 6.4956V9.525H22.6391L21.9235 8.74425L21.9214 8.742C21.8242 8.64022 21.8242 8.61337 21.8246 8.5002V6.4956H21.8247Z" fill="white"/><path d="M14.1375 7.125H12.075V6.67088C12.075 6.30037 11.7746 6 11.4041 6H9.89595C9.52545 6 9.22508 6.30037 9.22508 6.67088V7.125H7.1625C6.5205 7.125 6 7.6455 6 8.2875V12.9375C6 13.5795 6.5205 14.1 7.1625 14.1H14.1375C14.7795 14.1 15.3 13.5795 15.3 12.9375V8.2875C15.3 7.6455 14.7795 7.125 14.1375 7.125ZM9.75 6.525H11.55V7.125H9.75V6.525Z" fill="white"/><path d="M6.70835 5.6313L5.64771 6.69188L22.99 24.0341L24.0505 22.9733L6.70835 5.6313Z" fill="#EB0000"/></svg>