<svg height="100" viewBox="0 0 290 100" width="290" xmlns="http://www.w3.org/2000/svg"><path d="m184.45192 9.59684h-80.806313v80.80632h80.806313z" fill="#f7b500"/><path d="m172.330978 17.677475c2.222168 0 4.040314 1.818138 4.040314 4.040314v56.564422c0 2.222176-1.818146 4.040314-4.040314 4.040314h-56.564422c-2.222176 0-4.040322-1.818138-4.040322-4.040314v-56.564422c0-2.222176 1.818146-4.040314 4.040322-4.040314zm0-1.010078h-56.564422c-2.784775 0-5.0504 2.265617-5.0504 5.050392v56.564422c0 2.784851 2.265625 5.0504 5.0504 5.0504h56.564422c2.784851 0 5.050385-2.265549 5.050385-5.0504v-56.564422c0-2.784775-2.265534-5.050392-5.050385-5.050392z"/><path d="m149.513153 60.90239c0 2.800746-2.27066 5.071136-5.070587 5.071136-2.800491 0-5.071411-2.270123-5.071411-5.071136 0-2.80048 2.27066-5.071137 5.071411-5.071137 2.799927 0 5.070587 2.270657 5.070587 5.071137z"/><path d="m144.444717 41.707928c-10.724624 0-20.429374 6.351913-24.722023 16.178768 4.289818 9.8274 13.994439 16.179314 24.722023 16.179314 10.72461 0 20.429444-6.351914 24.722687-16.179314-4.290008-9.826855-13.995376-16.178768-24.722687-16.178768zm-.002151 29.331882v-.018043c-5.588837 0-10.118851-4.530815-10.118851-10.119377 0-5.588837 4.530014-10.119648 10.118851-10.119648 5.588821 0 10.118561 4.530811 10.118561 10.119648h3.021881c0-7.257218-5.886734-13.140725-13.141251-13.140725-7.252914 0-13.139648 5.883507-13.139648 13.140725 0 2.82526.895065 5.441223 2.412597 7.586364-4.511413-2.263122-8.285659-5.926067-10.647033-10.602058h.000808c4.073449-8.065277 12.339936-13.151768 21.378663-13.151768 9.032791 0 17.301162 5.086491 21.374618 13.151768h-.000549c-4.073181 8.066086-12.339936 13.153114-21.378647 13.153114z"/><path d="m278.725952 9.59684h-80.806305v80.80632h80.806305z" fill="#2d327d"/><g fill="#fff"><path d="m266.605011 17.677475c2.222168 0 4.040314 1.818138 4.040314 4.040314v56.564422c0 2.222176-1.818146 4.040314-4.040314 4.040314h-56.564423c-2.222168 0-4.040313-1.818138-4.040313-4.040314v-56.564422c0-2.222176 1.818145-4.040314 4.040313-4.040314zm0-1.010078h-56.564423c-2.784774 0-5.050399 2.265617-5.050399 5.050392v56.564422c0 2.784851 2.265625 5.0504 5.050399 5.0504h56.564423c2.784851 0 5.050385-2.265549 5.050385-5.0504v-56.564422c0-2.784775-2.265534-5.050392-5.050385-5.050392z"/><path d="m214.07959 25.757515v1.012901l48.485107 4.244141v-1.015328z"/><path d="m236.45752 65.672928-10.161927-.890488c.655609 2.356049 2.802628 3.986443 5.247284 3.986443 2.096924 0 4.011231-1.20266 4.914643-3.095955z"/><path d="m247.933899 37.066948-10.605011-7.415413-11.733887 5.462112 5.585327 4.544224-12.679397-1.107857c-.07515-.007808-.150299-.012393-.227875-.012393-1.360962 0-2.497101 1.042671-2.61731 2.39833l-1.724197 19.722672c-.004852.029899-.004852.057369-.004852.087272 0 .522812.400177.960514.923218 1.008191l47.714782 4.176349v-11.561775l-11.090133-.96806c-.522812-.047676-.920914-.485378-.920914-1.007927 0-.029895.002685-.057373.002685-.087539l.705445-8.053154c.045242-.520394.48053-.920387 1.006042-.920387.029892 0 .060059 0 .08754.005115l10.209335.892914v-1.825955l-20.919403-1.830802zm-24.245606 4.774311-.702804 8.05019c-.045242.522549-.483032.92281-1.006027.92281-.029908 0-.057373-.002423-.087677-.004849l-4.326584-.377636h-.002426c-.520188-.047676-.920792-.482681-.920792-1.00819 0-.029633.002426-.057377.002426-.087273l.705841-8.050735c.044846-.519848.483032-.919846 1.006043-.919846.029892 0 .059799 0 .090088.002423l4.323761.379791c.52301.045254.923614.482689.923614 1.005234-.000214.030704-.000214.060604-.005463.088081zm4.907319.732906-1.006043 11.471539c-.067337.782745-.723221 1.383133-1.508926 1.383133-.8358 0-1.513993-.677963-1.513993-1.513233 0-.044979 0-.089966.005066-.135216l1.003083-11.469109c.070297-.782741.72322-1.383136 1.508926-1.383136.8358 0 1.516464.677696 1.516464 1.515659.00026.042553-.002151.08754-.004577.130363zm4.829513.422352-1.006027 11.471802c-.067612.783016-.720795 1.383133-1.508926 1.383133-.836075 0-1.513779-.677696-1.513779-1.515385 0-.04525.002426-.087543.004852-.132522l1.006043-11.46938c.065185-.783016.72052-1.383404 1.5065-1.383404.838226 0 1.516189.677964 1.516189 1.515927 0 .044983-.002426.087269-.004852.129829zm-4.42926-7.460254 8.152557-3.793641 7.364411 5.151669-6.095765 3.39629-4.008789-.349892zm19.535736 7.46537c.523087.044979.920929.482956.920929 1.005504 0 .029896 0 .059796-.002426.089691l-.705704 8.04831c-.044983.522548-.48027.922809-1.005768.922809-.030166 0-.060074 0-.087555-.005119l-12.176697-1.065025c-.520126-.045254-.920654-.482952-.920654-1.005501 0-.03017.002426-.060066.002426-.08754l.705704-8.050468c.045258-.522545.48053-.922802 1.006043-.922802.029892 0 .059799.002422.087265.004845z"/><path d="m248.534027 66.727982-10.164627-.887787c.655884 2.356041 2.802902 3.986717 5.250259 3.986717 2.09665.000267 4.00853-1.20536 4.914368-3.09893z"/><path d="m214.07959 69.999557 48.485107 4.243958v-1.725754l-48.485107-4.241524z"/></g><path d="m20 10h60c5.52285 0 10 4.47715 10 10v60c0 5.52285-4.47715 10-10 10h-60c-5.522847 0-10-4.47715-10-10v-60c0-5.52285 4.477153-10 10-10z" fill="#eb0000"/><path d="m26.75 82.485001 2.4-17.220002 5.824998 6.474999 17.610001-21.93-27.584999-6.269997 21.215-26.040001h25.105l-30.834999 23.684998 32.014999 7.255001-32.860001 27.615001 5.89 6.445z" fill="#fff" fill-rule="evenodd"/></svg>