<svg class="color-immutable" width="24" height="24" viewBox="0 0 24 24" fill="none" xmlns="http://www.w3.org/2000/svg"><path d="M0 22.5V1.5C0 0.675 0.675 0 1.5 0H22.5C23.325 0 24 0.675 24 1.5V22.5C24 23.325 23.325 24 22.5 24H1.5C0.675 24 0 23.325 0 22.5Z" fill="#2D327D"/><path d="M5.435 4.48401C5.435 3.65601 6.107 2.98401 6.935 2.98401C7.762 2.98401 8.434 3.65601 8.434 4.48401C8.434 5.31201 7.762 5.98401 6.935 5.98401C6.107 5.98401 5.435 5.31201 5.435 4.48401Z" fill="white"/><path d="M18.895 20.88L18.645 21.129L10.743 13.227L10.993 12.977L18.895 20.88Z" fill="white"/><path d="M10.701 12.086L10.698 12.088C10.77 12.16 10.827 12.25 10.855 12.356C10.94 12.676 10.751 13.005 10.431 13.09C10.216 13.147 9.99999 13.079 9.85299 12.933L8.73499 11.816V10.12L10.701 12.086Z" fill="white"/><path d="M4.772 20.621C4.565 20.98 4.106 21.102 3.748 20.895C3.389 20.688 3.266 20.229 3.473 19.871L5.435 16.473V7.89902C5.435 7.07102 6.107 6.39902 6.935 6.39902C7.762 6.39902 8.434 7.07102 8.434 7.89902V13.49C8.434 13.49 9.988 16.18 10.066 16.317C10.145 16.454 10.181 16.588 10.181 16.746V20.245C10.181 20.66 9.845 20.996 9.43099 20.996C9.01699 20.996 8.68099 20.66 8.68099 20.245V16.919L6.934 13.893V16.875L4.772 20.621Z" fill="white"/></svg>