<svg class="color-immutable" width="24" height="24" viewBox="0 0 24 24" fill="none" xmlns="http://www.w3.org/2000/svg"><path d="M0 22.5V1.5C0 0.675 0.675 0 1.5 0H22.5C23.325 0 24 0.675 24 1.5V22.5C24 23.325 23.325 24 22.5 24H1.5C0.675 24 0 23.325 0 22.5Z" fill="#2D327D"/><path d="M21 20.7H3V21H21V20.7Z" fill="white"/><path d="M13.125 17.475H15.225C15.243 17.475 15.261 17.474 15.279 17.471L17.631 17.475C17.845 17.475 18.041 17.404 18.199 17.284C18.356 17.164 18.475 16.995 18.532 16.8L21 7.27499H19.5L17.962 12.149L14.325 12.112L14.213 12.113C13.861 12.113 13.576 12.398 13.576 12.75C13.576 13.102 13.861 13.387 14.213 13.387H14.325L17.557 13.425L16.914 15.45H15.224H14.624H13.124C12.877 15.45 12.674 15.653 12.674 15.9V17.025C12.675 17.272 12.877 17.475 13.125 17.475ZM12.975 15.9C12.975 15.819 13.044 15.75 13.125 15.75H14.625H15.225H16.915H17.135L17.201 15.541L17.844 13.516L17.967 13.13L17.562 13.125L14.326 13.087H14.213C14.027 13.087 13.876 12.936 13.876 12.75C13.876 12.564 14.027 12.413 14.217 12.412L14.326 12.411L17.96 12.448L18.182 12.45L18.249 12.238L19.721 7.57399H20.614L18.243 16.719C18.205 16.847 18.125 16.963 18.017 17.044C17.905 17.129 17.772 17.174 17.632 17.174L15.28 17.17H15.262L15.244 17.172C15.235 17.173 15.229 17.173 15.226 17.173H13.126C13.045 17.173 12.976 17.104 12.976 17.023L12.975 15.9Z" fill="white"/><path d="M19.508 6.825H21V3.496C21 3.222 20.778 3 20.504 3H19.02C18.747 3 18.524 3.222 18.524 3.496V5.5C18.524 5.662 18.535 5.773 18.703 5.949L19.508 6.825ZM18.825 3.496C18.825 3.388 18.913 3.3 19.021 3.3H20.505C20.613 3.3 20.701 3.388 20.701 3.496V6.525H19.641L18.925 5.744L18.923 5.742C18.824 5.64 18.824 5.613 18.825 5.5V3.496Z" fill="white"/><path d="M11.137 4.125H9.075V3.671C9.075 3.3 8.775 3 8.404 3H6.896C6.525 3 6.225 3.3 6.225 3.671V4.125H4.162C3.52 4.125 3 4.645 3 5.287V9.937C3 10.58 3.52 11.1 4.162 11.1H11.137C11.779 11.1 12.3 10.58 12.3 9.937V5.287C12.3 4.645 11.78 4.125 11.137 4.125ZM6.75 3.525H8.55V4.125H6.75V3.525Z" fill="white"/><path d="M3.70801 2.631L2.64801 3.692L19.99 21.034L21.05 19.973L3.70801 2.631Z" fill="#EB0000"/></svg>