<svg class="color-immutable" width="30" height="30" viewBox="0 0 30 30" fill="none" xmlns="http://www.w3.org/2000/svg"><path d="M29.9998 0H0V29.9998H29.9998V0Z" fill="#2D327D"/><path d="M25.4999 2.99998C26.3249 2.99998 26.9999 3.67498 26.9999 4.49998V25.4999C26.9999 26.3249 26.3249 26.9999 25.4999 26.9999H4.49998C3.67498 26.9999 2.99998 26.3249 2.99998 25.4999V4.49998C2.99998 3.67498 3.67498 2.99998 4.49998 2.99998H25.4999ZM25.4999 2.62499H4.49998C3.46611 2.62499 2.62499 3.46611 2.62499 4.49998V25.4999C2.62499 26.5337 3.46611 27.3749 4.49998 27.3749H25.4999C26.5337 27.3749 27.3749 26.5337 27.3749 25.4999V4.49998C27.3749 3.46611 26.5337 2.62499 25.4999 2.62499Z" fill="white"/><path d="M8.43502 7.48355C8.43502 6.65578 9.10709 5.98401 9.93501 5.98401C10.7624 5.98401 11.4345 6.65571 11.4345 7.48355C11.4345 8.31177 10.7624 8.98347 9.93501 8.98347C9.10709 8.98347 8.43502 8.31177 8.43502 7.48355Z" fill="white"/><path d="M21.8951 23.8799L21.6454 24.129L13.7431 16.2268L13.9925 15.9764L21.8951 23.8799Z" fill="white"/><path d="M13.7009 15.0861L13.6977 15.0882C13.7701 15.1603 13.8263 15.25 13.8551 15.3561C13.9406 15.6763 13.751 16.0048 13.4307 16.0905C13.2161 16.1479 12.9993 16.0799 12.8529 15.9337H12.8524L11.735 14.8168V13.1202L13.7009 15.0861Z" fill="white"/><path d="M7.77151 23.6209C7.56451 23.9802 7.10558 24.102 6.74746 23.8952C6.38851 23.6885 6.26559 23.229 6.47289 22.8709L8.43488 19.4727V10.8988C8.43488 10.0712 9.10695 9.39918 9.93487 9.39918C10.7623 9.39918 11.4343 10.0712 11.4343 10.8988V16.4902C11.4343 16.4902 12.988 19.1806 13.0668 19.3169C13.1458 19.4535 13.1816 19.5874 13.1816 19.7457V23.2443C13.1816 23.6595 12.8458 23.9951 12.4319 23.9951C12.0177 23.9951 11.6822 23.6595 11.6822 23.2443V19.9183L9.93502 16.8925V19.8748L7.77151 23.6209Z" fill="white"/></svg>