<svg class="color-immutable" width="30" height="30" viewBox="0 0 30 30" fill="none" xmlns="http://www.w3.org/2000/svg"><path d="M30 0H0V30H30V0Z" fill="#2D327D"/><path d="M25.5 3C26.325 3 27 3.675 27 4.5V25.5C27 26.325 26.325 27 25.5 27H4.5C3.675 27 3 26.325 3 25.5V4.5C3 3.675 3.675 3 4.5 3H25.5ZM25.5 2.625H4.5C3.46613 2.625 2.625 3.46613 2.625 4.5V25.5C2.625 26.5339 3.46613 27.375 4.5 27.375H25.5C26.5339 27.375 27.375 26.5339 27.375 25.5V4.5C27.375 3.46613 26.5339 2.625 25.5 2.625Z" fill="white"/><path d="M15 18C16.6569 18 18 16.6569 18 15C18 13.3431 16.6569 12 15 12C13.3431 12 12 13.3431 12 15C12 16.6569 13.3431 18 15 18Z" fill="white"/><path d="M22.8 9.75001H19.275L18.9282 9.25621L18.2206 8.24881C18.1555 8.15611 18.0426 8.10001 17.9214 8.10001H15H12.0787C11.9574 8.10001 11.8446 8.15611 11.7795 8.24881L11.0719 9.25621L10.725 9.75001H7.2C6.53723 9.75001 6 10.2872 6 10.95V19.05C6 19.7128 6.53723 20.25 7.2 20.25H22.8C23.4628 20.25 24 19.7128 24 19.05V10.95C24 10.2872 23.4628 9.75001 22.8 9.75001ZM8.475 12.15C8.06078 12.15 7.725 11.8142 7.725 11.4C7.725 10.9858 8.06078 10.65 8.475 10.65C8.88923 10.65 9.225 10.9858 9.225 11.4C9.225 11.8142 8.88923 12.15 8.475 12.15ZM15 19.05C12.7633 19.05 10.95 17.2367 10.95 15C10.95 12.7633 12.7633 10.95 15 10.95C17.2367 10.95 19.05 12.7633 19.05 15C19.05 17.2367 17.2367 19.05 15 19.05Z" fill="white"/><path d="M22.875 8.85C22.875 8.7675 22.8412 8.6925 22.7872 8.63775C22.7325 8.58375 22.6575 8.55 22.575 8.55H20.625C20.4592 8.55 20.325 8.68425 20.325 8.85V9.15H22.875V8.85Z" fill="white"/><path d="M6.70835 5.6313L5.64771 6.69188L22.99 24.0341L24.0505 22.9733L6.70835 5.6313Z" fill="#EB0000"/></svg>